<svg width="1058" height="785" viewBox="0 0 1058 785" fill="none" xmlns="http://www.w3.org/2000/svg">
<g id="undraw_Ride_a_bicycle_2yok 1">
<g id="left-wheel">
<path id="Vector" d="M236.725 712.778L230.455 614.838L230.325 614.628L224.005 616.828L194.925 701.678L148.675 668.888L222.345 615.478L222.415 615.268L222.835 615.118L227.585 611.668L150.345 568.358L131.425 589.158L134.425 608.658L223.245 610.278V612.278L132.765 610.658L129.345 588.518L155.245 560.058L193.995 514.858L194.685 516.728L202.885 507.728L233.345 513.188V511.978L235.345 512.038V513.548L280.705 521.668L238.415 606.278L232.245 610.748V611.248V611.808L330.045 577.728L318.435 668.938L235.435 616.068L232.515 614.428L281.455 693.308L236.725 712.778ZM232.725 618.438L238.575 709.818L278.625 692.438L232.725 618.438ZM152.145 668.868L193.935 698.498L221.275 618.758L152.145 668.868ZM234.465 613.208L236.555 614.378L316.905 665.578L327.705 580.708L234.465 613.208ZM227.365 606.008L229.875 610.058L230.315 609.738L233.315 515.208L203.575 509.888L195.415 518.888L227.365 606.008ZM151.945 566.948L226.785 608.948L225.485 606.818L193.905 520.548L156.715 561.418L151.945 566.948ZM235.345 515.558L232.345 608.278L236.865 604.998L277.775 523.178L235.345 515.558Z" fill="#535461"/>
<path id="Vector_2" d="M346.415 585.738C342.405 567.919 334.285 551.283 322.705 537.158C318.406 531.909 313.666 527.038 308.535 522.598C288.809 505.567 263.986 495.568 237.962 494.17C211.938 492.771 186.187 500.053 164.749 514.873C143.311 529.693 127.401 551.211 119.515 576.05C111.629 600.89 112.214 627.645 121.178 652.116C130.142 676.587 146.978 697.39 169.042 711.258C191.107 725.127 217.152 731.277 243.09 728.743C269.028 726.208 293.39 715.134 312.353 697.257C331.317 679.379 343.807 655.712 347.865 629.968C348.809 623.907 349.284 617.783 349.285 611.648C349.292 602.932 348.329 594.242 346.415 585.738ZM231.225 700.088C212.993 700.069 195.209 694.435 180.292 683.953C165.374 673.47 154.047 658.648 147.851 641.501C141.655 624.354 140.89 605.715 145.66 588.118C150.43 570.521 160.505 554.82 174.513 543.15C188.521 531.48 205.783 524.408 223.953 522.895C242.122 521.381 260.316 525.501 276.062 534.693C291.807 543.884 304.34 557.703 311.956 574.268C319.571 590.834 321.9 609.343 318.625 627.278C314.875 647.722 304.076 666.203 288.107 679.506C272.137 692.809 252.01 700.093 231.225 700.088Z" fill="#535461"/>
<path id="Vector_3" d="M231.225 624.058C238.3 624.058 244.035 618.323 244.035 611.248C244.035 604.174 238.3 598.438 231.225 598.438C224.15 598.438 218.415 604.174 218.415 611.248C218.415 618.323 224.15 624.058 231.225 624.058Z" fill="#535461"/>
</g>
<g id="right-wheel">
<path id="Vector_4" d="M656.847 710.78L650.587 612.88L650.457 612.67L644.137 614.87L615.047 699.68L568.797 666.88L642.487 613.47L642.557 613.26L642.977 613.11L647.727 609.66L570.487 566.35L551.557 587.15L554.557 606.65L643.357 608.23V610.23L552.877 608.61L549.477 586.5L575.367 558.05L614.087 512.88L614.777 514.75L622.977 505.75L653.517 511.22V510.01L655.517 510.07V511.58L700.877 519.7L658.547 604.35L652.377 608.82V609.32V609.88L750.187 575.8L738.577 667.01L655.577 614.14L652.657 612.5L701.597 691.39L656.847 710.78ZM652.847 616.44L658.697 707.82L698.747 690.44L652.847 616.44ZM572.277 666.88L614.067 696.51L641.407 616.77L572.277 666.88ZM654.597 611.22L656.687 612.39L737.037 663.59L747.837 578.72L654.597 611.22ZM647.497 604.02L650.007 608.07L650.447 607.75L653.447 513.22L623.707 507.88L615.547 516.88L647.497 604.02ZM572.107 564.97L646.947 606.97L645.647 604.84L614.067 518.57L576.867 559.45L572.107 564.97ZM655.477 513.58L652.477 606.27L656.997 602.99L697.907 521.17L655.477 513.58Z" fill="#535461"/>
<path id="Vector_5" d="M651.757 492C641.144 491.988 630.578 493.415 620.347 496.24C615.071 497.695 609.904 499.523 604.887 501.71C578.157 513.297 556.674 534.387 544.594 560.898C532.514 587.41 530.697 617.459 539.492 645.233C548.287 673.008 567.071 696.533 592.209 711.259C617.348 725.984 647.054 730.863 675.582 724.952C704.109 719.04 729.431 702.759 746.648 679.257C763.865 655.755 771.754 626.702 768.789 597.72C765.823 568.738 752.215 541.885 730.595 522.356C708.975 502.828 680.881 492.012 651.747 492H651.757ZM651.357 698.09C631.076 698.082 611.408 691.137 595.62 678.407C579.831 665.678 568.872 647.931 564.562 628.113C560.252 608.295 562.851 587.599 571.928 569.463C581.004 551.326 596.011 536.84 614.457 528.41C619.149 526.262 624.021 524.532 629.017 523.24C641.229 520.07 653.977 519.537 666.411 521.678C678.845 523.818 690.681 528.581 701.13 535.652C711.58 542.722 720.404 551.937 727.015 562.683C733.627 573.429 737.873 585.46 739.473 597.975C741.073 610.49 739.989 623.202 736.293 635.265C732.598 647.329 726.375 658.467 718.04 667.939C709.704 677.41 699.447 684.998 687.951 690.196C676.455 695.395 663.984 698.086 651.367 698.09H651.357Z" fill="#535461"/>
<path id="Vector_6" d="M651.357 622.06C658.432 622.06 664.167 616.325 664.167 609.25C664.167 602.175 658.432 596.44 651.357 596.44C644.282 596.44 638.547 602.175 638.547 609.25C638.547 616.325 644.282 622.06 651.357 622.06Z" fill="#535461"/>
</g>
<g id="man-bike">
<path id="Vector_7" d="M366.47 550.194L323.763 508.05L310.417 521.574L353.124 563.718L366.47 550.194Z" fill="#878692"/>
<path id="Vector_8" d="M333.95 487.881C333.95 487.881 358.74 474.801 368.32 466.381C374.087 461.335 380.288 456.808 386.85 452.851L417.95 433.921L482.95 428.921L485.95 439.921C485.95 439.921 490.95 455.921 440.95 469.921C390.95 483.921 365.95 505.921 365.95 505.921C365.95 505.921 333.95 516.881 333.95 487.881Z" fill="#DB8B8B"/>
<path id="Vector_9" opacity="0.1" d="M368.6 503.751C366.83 505.101 365.95 505.881 365.95 505.881C365.95 505.881 333.95 516.881 333.95 487.881C333.95 487.881 335.5 487.061 337.95 485.691C340.425 489.721 343.893 493.05 348.021 495.359C352.149 497.669 356.8 498.881 361.53 498.881H364.92L368.6 503.751Z" fill="black"/>
<path id="Vector_10" opacity="0.05" d="M485.01 445.441C482.23 451.331 472.64 461.011 440.95 469.881C400.34 481.251 376.22 497.881 368.6 503.751C366.83 505.101 365.95 505.881 365.95 505.881C365.95 505.881 333.95 516.881 333.95 487.881C333.95 487.881 335.5 487.061 337.95 485.691C345.38 481.621 361.11 472.691 368.29 466.341C374.056 461.294 380.257 456.766 386.82 452.811L417.92 433.881L429.5 432.991L482.92 428.881L485.92 439.881C485.92 439.881 486.62 442.031 485.01 445.441Z" fill="black"/>
<path id="Vector_11" d="M334.45 481.381L307.95 498.881L385.55 563.881C385.55 563.881 396.95 556.881 390.95 548.881C390.95 548.881 370.95 531.881 369.95 507.881L363.95 499.881H360.56C354.828 499.882 349.237 498.102 344.559 494.788C339.882 491.474 336.35 486.789 334.45 481.381Z" fill="#ABB1D1"/>
<path id="Vector_12" opacity="0.1" d="M485.01 445.441C469.01 437.711 429.95 436.881 429.95 436.881L429.53 432.991L482.95 428.881L485.95 439.881C485.95 439.881 486.62 442.031 485.01 445.441Z" fill="black"/>
<path id="Vector_13" d="M429.95 434.881C429.95 434.881 476.95 435.881 488.95 445.881L482.95 324.881H417.95L429.95 434.881Z" fill="#ABB1D1"/>
<path id="Vector_14" opacity="0.05" d="M429.95 434.381C429.95 434.381 476.95 435.381 488.95 445.381L482.95 324.381H417.95L429.95 434.381Z" fill="black"/>
<path id="Vector_15" d="M467.71 360.841C467.71 360.841 585.36 356.841 587.76 372.051C590.16 387.261 470.11 380.851 470.11 380.851C470.11 380.851 460.51 371.241 467.71 360.841Z" fill="#535461"/>
<path id="Vector_16" opacity="0.05" d="M467.71 360.841C467.71 360.841 585.36 356.841 587.76 372.051C590.16 387.261 470.11 380.851 470.11 380.851C470.11 380.851 460.51 371.241 467.71 360.841Z" fill="black"/>
<path id="Vector_17" d="M372.47 421.671H351.66V602.551H372.47V421.671Z" fill="#878692"/>
<path id="Vector_18" opacity="0.1" d="M372.47 421.661V435.591C365.55 436.491 358.47 437.061 351.66 437.281V421.661H372.47Z" fill="black"/>
<path id="Vector_19" d="M370.91 406.671C367.99 406.445 365.086 406.054 362.21 405.501C350.93 403.341 322.49 398.811 314.84 406.501C305.24 416.101 308.44 432.911 334.05 435.311C359.66 437.711 403.68 431.311 412.49 421.701C412.49 421.661 396.56 408.641 370.91 406.671Z" fill="#535461"/>
<path id="Vector_20" d="M366.87 471.291L585.37 403.261L592.57 420.071L368.47 496.901L366.87 471.291Z" fill="#878692"/>
<path id="Vector_21" d="M431.7 578.541L589.37 423.271L598.17 436.071L447.7 592.941L431.7 578.541Z" fill="#878692"/>
<path id="Vector_22" opacity="0.1" d="M633.05 525.741C628.054 527.033 623.182 528.763 618.49 530.911L608.93 504.201C613.947 502.014 619.114 500.186 624.39 498.731L633.05 525.741Z" fill="black"/>
<path id="Vector_23" d="M659.8 604.151L648.6 610.551L570.46 392.221L566.96 382.451L585.37 372.041L589.98 386.421L659.8 604.151Z" fill="#878692"/>
<path id="Vector_24" opacity="0.1" d="M589.98 386.421L570.46 392.221L566.96 382.451L585.37 372.041L589.98 386.421Z" fill="black"/>
<path id="Vector_25" d="M470.91 403.261L580.56 365.641C580.56 365.641 599.77 368.041 592.56 384.051L482.12 416.861C482.12 416.861 465.32 418.461 470.91 403.261Z" fill="#535461"/>
<path id="Vector_26" opacity="0.1" d="M347.26 611.751C347.259 617.885 346.784 624.01 345.84 630.071C336.24 629.381 326.32 628.381 316.6 627.381C318.759 615.49 318.491 603.285 315.81 591.501C325.28 589.501 334.95 587.591 344.39 585.861C346.303 594.358 347.265 603.041 347.26 611.751Z" fill="black"/>
<path id="Vector_27" opacity="0.1" d="M372.47 581.271V602.541H351.66V584.541C358.86 583.291 365.86 582.181 372.47 581.271Z" fill="black"/>
<path id="Vector_28" d="M238.01 611.381C238.01 611.381 406.09 567.381 419.69 584.171C433.29 600.961 447.7 623.381 405.32 631.381C362.94 639.381 234.84 617.771 234.84 617.771L238.01 611.381Z" fill="#878692"/>
<path id="Vector_29" opacity="0.1" d="M320.68 537.261L299.32 556.811C295.537 551.955 291.261 547.504 286.56 543.531L306.5 522.701C311.634 527.14 316.378 532.011 320.68 537.261Z" fill="black"/>
<path id="Vector_30" d="M232.41 602.551L358.06 471.291L362.07 501.701L238.81 614.551L232.41 602.551Z" fill="#878692"/>
<path id="Vector_31" opacity="0.1" d="M230.81 624.161C237.885 624.161 243.62 618.426 243.62 611.351C243.62 604.276 237.885 598.541 230.81 598.541C223.735 598.541 218 604.276 218 611.351C218 618.426 223.735 624.161 230.81 624.161Z" fill="black"/>
<path id="Vector_32" opacity="0.1" d="M654.6 622.961C661.675 622.961 667.41 617.226 667.41 610.151C667.41 603.076 661.675 597.341 654.6 597.341C647.525 597.341 641.79 603.076 641.79 610.151C641.79 617.226 647.525 622.961 654.6 622.961Z" fill="black"/>
<path id="Vector_33" opacity="0.1" d="M427.69 624.161C441.834 624.161 453.3 612.695 453.3 598.551C453.3 584.407 441.834 572.941 427.69 572.941C413.546 572.941 402.08 584.407 402.08 598.551C402.08 612.695 413.546 624.161 427.69 624.161Z" fill="black"/>
<path id="Vector_34" d="M429.3 624.161C443.444 624.161 454.91 612.695 454.91 598.551C454.91 584.407 443.444 572.941 429.3 572.941C415.156 572.941 403.69 584.407 403.69 598.551C403.69 612.695 415.156 624.161 429.3 624.161Z" fill="#535461"/>
<path id="Vector_35" d="M422.462 596.627L422.454 596.633C419.447 598.882 418.832 603.143 421.081 606.151L441.407 633.331C443.656 636.339 447.918 636.954 450.925 634.705L450.933 634.699C453.941 632.449 454.555 628.188 452.306 625.181L431.98 598C429.731 594.993 425.47 594.378 422.462 596.627Z" fill="#6C63FF"/>
<path id="Vector_36" d="M544.95 242.881L542.57 272.991C542.296 276.805 542.346 280.635 542.72 284.441C543.03 287.811 542.72 293.711 539.42 302.711C535.183 314.208 532.993 326.358 532.95 338.611V372.881L509.95 368.881C509.95 368.881 510.95 320.881 506.95 312.881C502.95 304.881 509.95 233.881 509.95 233.881L544.95 242.881Z" fill="#DB8B8B"/>
<path id="Vector_37" opacity="0.05" d="M543.77 257.801L542.57 272.991C542.3 276.802 542.353 280.629 542.73 284.431C543.04 287.801 542.73 293.701 539.43 302.711C535.193 314.208 533.003 326.358 532.96 338.611V372.881L509.96 368.881C509.96 368.881 510.96 320.881 506.96 312.881C504.13 307.211 506.81 269.941 508.62 248.671C509.37 239.921 509.96 233.881 509.96 233.881L544.96 242.881L543.77 257.801Z" fill="black"/>
<path id="Vector_38" d="M430.97 472.881L422.32 522.081C421.229 528.65 419.556 535.109 417.32 541.381C412.25 555.241 415.49 574.671 417.95 585.271C419.04 589.951 419.95 592.911 419.95 592.911L393.95 606.911L385.95 600.911V596.911L384.95 507.911C378.95 493.911 380.95 472.911 384.95 464.911C386.087 462.282 386.887 459.52 387.33 456.691C389.33 445.971 389.95 430.911 389.95 430.911C389.95 430.911 405.95 403.911 424.95 421.911C431.95 428.541 434.61 437.211 435.17 445.511C436.15 459.721 430.97 472.881 430.97 472.881Z" fill="#DB8B8B"/>
<path id="Vector_39" opacity="0.1" d="M435.17 445.481C421.3 453.721 397.17 456.051 387.33 456.661C389.33 445.941 389.95 430.881 389.95 430.881C389.95 430.881 405.95 403.881 424.95 421.881C431.95 428.511 434.61 437.181 435.17 445.481Z" fill="black"/>
<path id="Vector_40" d="M468.95 420.881C458.316 426.544 448.267 433.243 438.95 440.881C422.95 453.881 382.95 454.881 382.95 454.881V439.881C383.95 421.881 366.95 401.881 343.95 345.881C329.26 310.121 333.33 289.881 338.19 279.881C340.95 274.231 343.95 271.881 343.95 271.881L468.95 295.881L473.42 309.281L482.95 337.881C482.95 337.881 447.95 339.881 441.95 342.881C435.95 345.881 439.95 372.881 439.95 372.881C433.95 400.881 468.95 420.881 468.95 420.881Z" fill="#ABB1D1"/>
<path id="Vector_41" opacity="0.1" d="M544.95 242.881L543.77 257.801C526.37 262.801 513.95 246.881 513.95 246.881C512.135 247.367 510.352 247.965 508.61 248.671C509.36 239.921 509.95 233.881 509.95 233.881L544.95 242.881Z" fill="black"/>
<path id="Vector_42" opacity="0.1" d="M473.42 309.281C472.95 313.951 472.95 316.881 472.95 316.881C472.95 316.881 449.95 335.881 410.95 306.881C371.95 277.881 336.95 285.881 336.95 285.881C336.95 285.881 337.36 283.561 338.19 279.881C340.95 274.231 343.95 271.881 343.95 271.881L468.95 295.881L473.42 309.281Z" fill="black"/>
<path id="Vector_43" d="M558.43 203.831C555.82 224.181 554.95 249.831 554.95 249.831C531.95 267.831 513.95 244.831 513.95 244.831C492.23 250.661 482.02 269.671 477.21 286.261C474.634 295.235 473.202 304.498 472.95 313.831C472.95 313.831 466.87 318.831 455.67 319.831C445.08 320.721 429.9 317.961 410.95 303.831C371.95 274.831 336.95 282.831 336.95 282.831C336.95 282.831 343.95 242.831 359.95 230.831C375.95 218.831 387.95 203.831 407.95 157.831C427.95 111.831 468.95 122.831 468.95 122.831C468.95 122.831 470.95 113.831 507.95 122.831C516.962 125.193 525.304 129.612 532.32 135.741C552.11 152.381 561.71 178.191 558.43 203.831Z" fill="white"/>
<path id="Vector_44" d="M521.32 145.381C521.27 146.711 521.16 148.191 520.98 149.841C518.98 167.841 516.98 165.841 494.98 169.841C481.3 172.331 474.19 160.901 470.77 151.901C469.532 148.641 468.598 145.273 467.98 141.841L515.98 133.841C515.98 133.841 521.73 132.231 521.32 145.381Z" fill="#DB8B8B"/>
<path id="Vector_45" opacity="0.05" d="M477.21 286.311C474.634 295.285 473.202 304.548 472.95 313.881C472.95 313.881 466.87 318.881 455.67 319.881C455.354 319.244 455.113 318.573 454.95 317.881C452.95 308.881 437.95 292.881 437.95 292.881C427.95 283.881 425.95 267.881 425.95 267.881L409.45 219.381L403.95 214.881C403.95 214.881 426.95 196.881 446.95 211.881C466.95 226.881 460.95 258.881 460.95 258.881L464.95 269.881C469.1 273.381 473.32 279.551 477.21 286.311Z" fill="black"/>
<path id="Vector_46" d="M406.95 213.881L428.95 266.881C428.95 266.881 430.95 282.881 440.95 291.881C440.95 291.881 455.95 307.881 457.95 316.881C459.95 325.881 487.95 349.881 487.95 349.881C487.95 349.881 513.95 373.881 515.95 382.881C515.95 382.881 539.95 389.881 536.95 403.881C536.95 403.881 554.95 385.881 536.95 368.881C518.95 351.881 494.95 316.881 494.95 316.881C494.95 316.881 480.95 279.881 467.95 268.881L463.95 257.881C463.95 257.881 469.95 225.881 449.95 210.881C429.95 195.881 406.95 213.881 406.95 213.881Z" fill="#DB8B8B"/>
<path id="Vector_47" opacity="0.1" d="M419.95 592.881L393.95 606.881L385.95 600.881V596.881C394.934 596.243 403.663 593.609 411.5 589.171C413.9 587.811 416.16 586.471 417.97 585.291C419.02 589.921 419.95 592.881 419.95 592.881Z" fill="black"/>
<path id="Vector_48" opacity="0.1" d="M449.95 171.881L463.95 226.881C463.95 226.881 420.95 233.881 411.95 226.881C402.95 219.881 385.95 217.881 385.95 217.881C385.95 217.881 403.95 165.881 413.95 159.881C423.95 153.881 449.95 171.881 449.95 171.881Z" fill="black"/>
<path id="Vector_49" d="M449.95 169.881L463.95 224.881C463.95 224.881 420.95 231.881 411.95 224.881C402.95 217.881 385.95 215.881 385.95 215.881C385.95 215.881 403.95 163.881 413.95 157.881C423.95 151.881 449.95 169.881 449.95 169.881Z" fill="white"/>
<path id="Vector_50" opacity="0.1" d="M521.32 144.381C518.519 148.247 514.957 151.499 510.853 153.938C506.748 156.376 502.188 157.949 497.453 158.56C492.718 159.171 487.909 158.806 483.32 157.489C478.731 156.172 474.46 153.93 470.77 150.901C469.532 147.641 468.598 144.273 467.98 140.841L515.98 132.841C515.98 132.841 521.73 131.231 521.32 144.381Z" fill="black"/>
<path id="Vector_51" d="M527.95 122.881C527.95 132.163 524.263 141.066 517.699 147.63C511.135 154.193 502.233 157.881 492.95 157.881C483.667 157.881 474.765 154.193 468.201 147.63C461.638 141.066 457.95 132.163 457.95 122.881C457.95 122.301 457.95 121.721 457.95 121.141C458.181 111.858 462.09 103.048 468.816 96.6469C475.543 90.2463 484.537 86.7801 493.82 87.0108C503.103 87.2416 511.913 91.1503 518.314 97.8773C524.715 104.604 528.181 113.598 527.95 122.881Z" fill="#DB8B8B"/>
<path id="Vector_52" opacity="0.1" d="M527.95 122.881C527.953 126.107 527.509 129.317 526.63 132.421C523.925 133.01 521.103 132.752 518.55 131.681C514.81 130.211 511.6 127.681 508.01 125.861C497.9 120.741 485.87 121.751 474.67 123.441C469.11 124.281 462.8 125.061 458.43 121.521C458.28 121.402 458.136 121.275 458 121.141C458.231 111.858 462.14 103.048 468.866 96.6469C475.593 90.2463 484.587 86.7801 493.87 87.0108C503.153 87.2416 511.963 91.1503 518.364 97.8773C524.765 104.604 528.231 113.598 528 122.881H527.95Z" fill="black"/>
<path id="Vector_53" opacity="0.05" d="M364.45 230.381C364.45 230.381 390.45 237.381 398.45 255.381C406.45 273.381 428.09 276.671 428.09 276.671" fill="black"/>
<path id="Vector_54" d="M462.45 626.381H402.45V645.381H462.45V626.381Z" fill="#878692"/>
<path id="Vector_55" d="M411.46 591.121C416.83 588.121 421.54 585.121 421.95 583.881C421.95 583.881 435.5 598.181 447.57 602.621C451.629 604.12 455.514 606.051 459.16 608.381C463.94 611.381 470.76 614.911 476.95 614.911C476.95 614.911 490.95 626.911 463.95 628.911C436.95 630.911 373.95 623.911 373.95 623.911L377.95 598.911C389.637 599.596 401.274 596.891 411.46 591.121Z" fill="#ABB1D1"/>
</g>
<g id="hat">
<path id="hat_2" d="M427.624 103.927C429.754 110.607 439.984 110.817 445.234 115.737C447.964 118.297 449.234 122.077 452.234 124.357C456.404 127.537 462.424 126.837 467.734 126.077C478.424 124.557 489.904 123.647 499.544 128.257C502.964 129.887 506.034 132.167 509.604 133.497C513.174 134.827 517.604 134.987 520.504 132.627C522.824 130.737 523.674 127.627 525.774 125.547C527.404 123.907 529.674 122.987 531.534 121.547C535.614 118.467 537.374 113.447 538.534 108.647C540.934 98.7667 541.624 88.1167 537.534 78.7467C533.444 69.3767 523.604 61.7467 512.864 62.2367C509.574 62.3867 506.364 63.2367 503.084 63.5967C494.534 64.4667 486.084 61.5967 477.504 61.1067C475.015 60.8039 472.49 61.1483 470.174 62.1067C468.427 63.0775 466.92 64.4273 465.764 66.0567C461.836 71.2021 459.146 77.1836 457.904 83.5367C456.904 88.3267 456.854 92.6667 450.984 93.4067C444.314 94.2867 423.114 89.7967 427.624 103.927Z" fill="#472727"/>
</g>
</g>
</svg>
