<svg width="1058" height="785" viewBox="0 0 1058 785" fill="none" xmlns="http://www.w3.org/2000/svg">
<g id="undraw_Ride_a_bicycle_2yok 1">
<g id="left-wheel">
<path id="Vector" d="M236.725 712.778L230.455 614.838L230.325 614.628L224.005 616.828L194.925 701.678L148.675 668.888L222.345 615.478L222.415 615.268L222.835 615.118L227.585 611.668L150.345 568.358L131.425 589.158L134.425 608.658L223.245 610.278V612.278L132.765 610.658L129.345 588.518L155.245 560.058L193.995 514.858L194.685 516.728L202.885 507.728L233.345 513.188V511.978L235.345 512.038V513.548L280.705 521.668L238.415 606.278L232.245 610.748V611.248V611.808L330.045 577.728L318.435 668.938L235.435 616.068L232.515 614.428L281.455 693.308L236.725 712.778ZM232.725 618.438L238.575 709.818L278.625 692.438L232.725 618.438ZM152.145 668.868L193.935 698.498L221.275 618.758L152.145 668.868ZM234.465 613.208L236.555 614.378L316.905 665.578L327.705 580.708L234.465 613.208ZM227.365 606.008L229.875 610.058L230.315 609.738L233.315 515.208L203.575 509.888L195.415 518.888L227.365 606.008ZM151.945 566.948L226.785 608.948L225.485 606.818L193.905 520.548L156.715 561.418L151.945 566.948ZM235.345 515.558L232.345 608.278L236.865 604.998L277.775 523.178L235.345 515.558Z" fill="#535461"/>
<path id="Vector_2" d="M346.415 585.738C342.405 567.919 334.285 551.283 322.705 537.158C318.406 531.909 313.666 527.038 308.535 522.598C288.809 505.567 263.986 495.568 237.962 494.17C211.938 492.771 186.187 500.053 164.749 514.873C143.311 529.693 127.401 551.211 119.515 576.05C111.629 600.89 112.214 627.645 121.178 652.116C130.142 676.587 146.978 697.39 169.042 711.258C191.107 725.127 217.152 731.277 243.09 728.743C269.028 726.208 293.39 715.134 312.353 697.257C331.317 679.379 343.807 655.712 347.865 629.968C348.809 623.907 349.284 617.783 349.285 611.648C349.292 602.932 348.329 594.242 346.415 585.738ZM231.225 700.088C212.993 700.069 195.209 694.435 180.292 683.953C165.374 673.47 154.047 658.648 147.851 641.501C141.655 624.354 140.89 605.715 145.66 588.118C150.43 570.521 160.505 554.82 174.513 543.15C188.521 531.48 205.783 524.408 223.953 522.895C242.122 521.381 260.316 525.501 276.062 534.693C291.807 543.884 304.34 557.703 311.956 574.268C319.571 590.834 321.9 609.343 318.625 627.278C314.875 647.722 304.076 666.203 288.107 679.506C272.137 692.809 252.01 700.093 231.225 700.088Z" fill="#535461"/>
<path id="Vector_3" d="M231.225 624.058C238.3 624.058 244.035 618.323 244.035 611.248C244.035 604.174 238.3 598.438 231.225 598.438C224.15 598.438 218.415 604.174 218.415 611.248C218.415 618.323 224.15 624.058 231.225 624.058Z" fill="#535461"/>
</g>
<g id="right-wheel">
<path id="Vector_4" d="M656.847 710.78L650.587 612.88L650.457 612.67L644.137 614.87L615.047 699.68L568.797 666.88L642.487 613.47L642.557 613.26L642.977 613.11L647.727 609.66L570.487 566.35L551.557 587.15L554.557 606.65L643.357 608.23V610.23L552.877 608.61L549.477 586.5L575.367 558.05L614.087 512.88L614.777 514.75L622.977 505.75L653.517 511.22V510.01L655.517 510.07V511.58L700.877 519.7L658.547 604.35L652.377 608.82V609.32V609.88L750.187 575.8L738.577 667.01L655.577 614.14L652.657 612.5L701.597 691.39L656.847 710.78ZM652.847 616.44L658.697 707.82L698.747 690.44L652.847 616.44ZM572.277 666.88L614.067 696.51L641.407 616.77L572.277 666.88ZM654.597 611.22L656.687 612.39L737.037 663.59L747.837 578.72L654.597 611.22ZM647.497 604.02L650.007 608.07L650.447 607.75L653.447 513.22L623.707 507.88L615.547 516.88L647.497 604.02ZM572.107 564.97L646.947 606.97L645.647 604.84L614.067 518.57L576.867 559.45L572.107 564.97ZM655.477 513.58L652.477 606.27L656.997 602.99L697.907 521.17L655.477 513.58Z" fill="#535461"/>
<path id="Vector_5" d="M651.757 492C641.144 491.988 630.578 493.415 620.347 496.24C615.071 497.695 609.904 499.523 604.887 501.71C578.157 513.297 556.674 534.387 544.594 560.898C532.514 587.41 530.697 617.459 539.492 645.233C548.287 673.008 567.071 696.533 592.209 711.259C617.348 725.984 647.054 730.863 675.582 724.952C704.109 719.04 729.431 702.759 746.648 679.257C763.865 655.755 771.754 626.702 768.789 597.72C765.823 568.738 752.215 541.885 730.595 522.356C708.975 502.828 680.881 492.012 651.747 492H651.757ZM651.357 698.09C631.076 698.082 611.408 691.137 595.62 678.407C579.831 665.678 568.872 647.931 564.562 628.113C560.252 608.295 562.851 587.599 571.928 569.463C581.004 551.326 596.011 536.84 614.457 528.41C619.149 526.262 624.021 524.532 629.017 523.24C641.229 520.07 653.977 519.537 666.411 521.678C678.845 523.818 690.681 528.581 701.13 535.652C711.58 542.722 720.404 551.937 727.015 562.683C733.627 573.429 737.873 585.46 739.473 597.975C741.073 610.49 739.989 623.202 736.293 635.265C732.598 647.329 726.375 658.467 718.04 667.939C709.704 677.41 699.447 684.998 687.951 690.196C676.455 695.395 663.984 698.086 651.367 698.09H651.357Z" fill="#535461"/>
<path id="Vector_6" d="M651.357 622.06C658.432 622.06 664.167 616.325 664.167 609.25C664.167 602.175 658.432 596.44 651.357 596.44C644.282 596.44 638.547 602.175 638.547 609.25C638.547 616.325 644.282 622.06 651.357 622.06Z" fill="#535461"/>
</g>
<g id="man-bike">
<path id="Vector_7" d="M363.47 551.194L320.763 509.05L307.417 522.574L350.124 564.718L363.47 551.194Z" fill="#878692"/>
<path id="Vector_8" d="M330.95 488.881C330.95 488.881 355.74 475.801 365.32 467.381C371.087 462.335 377.288 457.808 383.85 453.851L414.95 434.921L479.95 429.921L482.95 440.921C482.95 440.921 487.95 456.921 437.95 470.921C387.95 484.921 362.95 506.921 362.95 506.921C362.95 506.921 330.95 517.881 330.95 488.881Z" fill="#DB8B8B"/>
<path id="Vector_9" opacity="0.1" d="M365.6 504.751C363.83 506.101 362.95 506.881 362.95 506.881C362.95 506.881 330.95 517.881 330.95 488.881C330.95 488.881 332.5 488.061 334.95 486.691C337.425 490.721 340.893 494.05 345.021 496.359C349.149 498.669 353.8 499.881 358.53 499.881H361.92L365.6 504.751Z" fill="black"/>
<path id="Vector_10" opacity="0.05" d="M482.01 446.441C479.23 452.331 469.64 462.011 437.95 470.881C397.34 482.251 373.22 498.881 365.6 504.751C363.83 506.101 362.95 506.881 362.95 506.881C362.95 506.881 330.95 517.881 330.95 488.881C330.95 488.881 332.5 488.061 334.95 486.691C342.38 482.621 358.11 473.691 365.29 467.341C371.056 462.294 377.257 457.766 383.82 453.811L414.92 434.881L426.5 433.991L479.92 429.881L482.92 440.881C482.92 440.881 483.62 443.031 482.01 446.441Z" fill="black"/>
<path id="Vector_11" d="M331.45 482.381L304.95 499.881L382.55 564.881C382.55 564.881 393.95 557.881 387.95 549.881C387.95 549.881 367.95 532.881 366.95 508.881L360.95 500.881H357.56C351.828 500.882 346.237 499.102 341.559 495.788C336.882 492.474 333.35 487.789 331.45 482.381Z" fill="#ABB1D1"/>
<path id="Vector_12" opacity="0.1" d="M482.01 446.441C466.01 438.711 426.95 437.881 426.95 437.881L426.53 433.991L479.95 429.881L482.95 440.881C482.95 440.881 483.62 443.031 482.01 446.441Z" fill="black"/>
<path id="Vector_13" d="M426.95 435.881C426.95 435.881 473.95 436.881 485.95 446.881L479.95 325.881H414.95L426.95 435.881Z" fill="#ABB1D1"/>
<path id="Vector_14" opacity="0.05" d="M426.95 435.381C426.95 435.381 473.95 436.381 485.95 446.381L479.95 325.381H414.95L426.95 435.381Z" fill="black"/>
<path id="Vector_15" d="M464.71 361.841C464.71 361.841 582.36 357.841 584.76 373.051C587.16 388.261 467.11 381.851 467.11 381.851C467.11 381.851 457.51 372.241 464.71 361.841Z" fill="#535461"/>
<path id="Vector_16" opacity="0.05" d="M464.71 361.841C464.71 361.841 582.36 357.841 584.76 373.051C587.16 388.261 467.11 381.851 467.11 381.851C467.11 381.851 457.51 372.241 464.71 361.841Z" fill="black"/>
<path id="Vector_17" d="M369.47 422.671H348.66V603.551H369.47V422.671Z" fill="#878692"/>
<path id="Vector_18" opacity="0.1" d="M369.47 422.661V436.591C362.55 437.491 355.47 438.061 348.66 438.281V422.661H369.47Z" fill="black"/>
<path id="Vector_19" d="M367.91 407.671C364.99 407.445 362.086 407.054 359.21 406.501C347.93 404.341 319.49 399.811 311.84 407.501C302.24 417.101 305.44 433.911 331.05 436.311C356.66 438.711 400.68 432.311 409.49 422.701C409.49 422.661 393.56 409.641 367.91 407.671Z" fill="#535461"/>
<path id="Vector_20" d="M363.87 472.291L582.37 404.261L589.57 421.071L365.47 497.901L363.87 472.291Z" fill="#878692"/>
<path id="Vector_21" d="M428.7 579.541L586.37 424.271L595.17 437.071L444.7 593.941L428.7 579.541Z" fill="#878692"/>
<path id="Vector_22" opacity="0.1" d="M630.05 526.741C625.054 528.033 620.182 529.763 615.49 531.911L605.93 505.201C610.947 503.014 616.114 501.186 621.39 499.731L630.05 526.741Z" fill="black"/>
<path id="Vector_23" d="M656.8 605.151L645.6 611.551L567.46 393.221L563.96 383.451L582.37 373.041L586.98 387.421L656.8 605.151Z" fill="#878692"/>
<path id="Vector_24" opacity="0.1" d="M586.98 387.421L567.46 393.221L563.96 383.451L582.37 373.041L586.98 387.421Z" fill="black"/>
<path id="Vector_25" d="M467.91 404.261L577.56 366.641C577.56 366.641 596.77 369.041 589.56 385.051L479.12 417.861C479.12 417.861 462.32 419.461 467.91 404.261Z" fill="#535461"/>
<path id="Vector_26" opacity="0.1" d="M344.26 612.751C344.259 618.885 343.784 625.01 342.84 631.071C333.24 630.381 323.32 629.381 313.6 628.381C315.759 616.49 315.491 604.285 312.81 592.501C322.28 590.501 331.95 588.591 341.39 586.861C343.303 595.358 344.265 604.041 344.26 612.751Z" fill="black"/>
<path id="Vector_27" opacity="0.1" d="M369.47 582.271V603.541H348.66V585.541C355.86 584.291 362.86 583.181 369.47 582.271Z" fill="black"/>
<path id="Vector_28" d="M235.01 612.381C235.01 612.381 403.09 568.381 416.69 585.171C430.29 601.961 444.7 624.381 402.32 632.381C359.94 640.381 231.84 618.771 231.84 618.771L235.01 612.381Z" fill="#878692"/>
<path id="Vector_29" opacity="0.1" d="M317.68 538.261L296.32 557.811C292.537 552.955 288.261 548.504 283.56 544.531L303.5 523.701C308.634 528.14 313.378 533.011 317.68 538.261Z" fill="black"/>
<path id="Vector_30" d="M229.41 603.551L355.06 472.291L359.07 502.701L235.81 615.551L229.41 603.551Z" fill="#878692"/>
<path id="Vector_31" opacity="0.1" d="M227.81 625.161C234.885 625.161 240.62 619.426 240.62 612.351C240.62 605.276 234.885 599.541 227.81 599.541C220.735 599.541 215 605.276 215 612.351C215 619.426 220.735 625.161 227.81 625.161Z" fill="black"/>
<path id="Vector_32" opacity="0.1" d="M651.6 623.961C658.675 623.961 664.41 618.226 664.41 611.151C664.41 604.076 658.675 598.341 651.6 598.341C644.525 598.341 638.79 604.076 638.79 611.151C638.79 618.226 644.525 623.961 651.6 623.961Z" fill="black"/>
<path id="Vector_33" opacity="0.1" d="M424.69 625.161C438.834 625.161 450.3 613.695 450.3 599.551C450.3 585.407 438.834 573.941 424.69 573.941C410.546 573.941 399.08 585.407 399.08 599.551C399.08 613.695 410.546 625.161 424.69 625.161Z" fill="black"/>
<path id="Vector_34" d="M426.3 625.161C440.444 625.161 451.91 613.695 451.91 599.551C451.91 585.407 440.444 573.941 426.3 573.941C412.156 573.941 400.69 585.407 400.69 599.551C400.69 613.695 412.156 625.161 426.3 625.161Z" fill="#535461"/>
<path id="Vector_35" d="M419.462 597.627L419.454 597.633C416.447 599.882 415.832 604.143 418.081 607.151L438.407 634.331C440.656 637.339 444.918 637.954 447.925 635.705L447.933 635.699C450.941 633.449 451.555 629.188 449.306 626.181L428.98 599C426.731 595.993 422.47 595.378 419.462 597.627Z" fill="#6C63FF"/>
<path id="Vector_36" d="M541.95 243.881L539.57 273.991C539.296 277.805 539.346 281.635 539.72 285.441C540.03 288.811 539.72 294.711 536.42 303.711C532.183 315.208 529.993 327.358 529.95 339.611V373.881L506.95 369.881C506.95 369.881 507.95 321.881 503.95 313.881C499.95 305.881 506.95 234.881 506.95 234.881L541.95 243.881Z" fill="#DB8B8B"/>
<path id="Vector_37" opacity="0.05" d="M540.77 258.801L539.57 273.991C539.3 277.802 539.353 281.629 539.73 285.431C540.04 288.801 539.73 294.701 536.43 303.711C532.193 315.208 530.003 327.358 529.96 339.611V373.881L506.96 369.881C506.96 369.881 507.96 321.881 503.96 313.881C501.13 308.211 503.81 270.941 505.62 249.671C506.37 240.921 506.96 234.881 506.96 234.881L541.96 243.881L540.77 258.801Z" fill="black"/>
<path id="Vector_38" d="M427.97 473.881L419.32 523.081C418.229 529.65 416.556 536.109 414.32 542.381C409.25 556.241 412.49 575.671 414.95 586.271C416.04 590.951 416.95 593.911 416.95 593.911L390.95 607.911L382.95 601.911V597.911L381.95 508.911C375.95 494.911 377.95 473.911 381.95 465.911C383.087 463.282 383.887 460.52 384.33 457.691C386.33 446.971 386.95 431.911 386.95 431.911C386.95 431.911 402.95 404.911 421.95 422.911C428.95 429.541 431.61 438.211 432.17 446.511C433.15 460.721 427.97 473.881 427.97 473.881Z" fill="#DB8B8B"/>
<path id="Vector_39" opacity="0.1" d="M432.17 446.481C418.3 454.721 394.17 457.051 384.33 457.661C386.33 446.941 386.95 431.881 386.95 431.881C386.95 431.881 402.95 404.881 421.95 422.881C428.95 429.511 431.61 438.181 432.17 446.481Z" fill="black"/>
<path id="Vector_40" d="M465.95 421.881C455.316 427.544 445.267 434.243 435.95 441.881C419.95 454.881 379.95 455.881 379.95 455.881V440.881C380.95 422.881 363.95 402.881 340.95 346.881C326.26 311.121 330.33 290.881 335.19 280.881C337.95 275.231 340.95 272.881 340.95 272.881L465.95 296.881L470.42 310.281L479.95 338.881C479.95 338.881 444.95 340.881 438.95 343.881C432.95 346.881 436.95 373.881 436.95 373.881C430.95 401.881 465.95 421.881 465.95 421.881Z" fill="#ABB1D1"/>
<path id="Vector_41" opacity="0.1" d="M541.95 243.881L540.77 258.801C523.37 263.801 510.95 247.881 510.95 247.881C509.135 248.367 507.352 248.965 505.61 249.671C506.36 240.921 506.95 234.881 506.95 234.881L541.95 243.881Z" fill="black"/>
<path id="Vector_42" opacity="0.1" d="M470.42 310.281C469.95 314.951 469.95 317.881 469.95 317.881C469.95 317.881 446.95 336.881 407.95 307.881C368.95 278.881 333.95 286.881 333.95 286.881C333.95 286.881 334.36 284.561 335.19 280.881C337.95 275.231 340.95 272.881 340.95 272.881L465.95 296.881L470.42 310.281Z" fill="black"/>
<path id="Vector_43" d="M555.43 204.831C552.82 225.181 551.95 250.831 551.95 250.831C528.95 268.831 510.95 245.831 510.95 245.831C489.23 251.661 479.02 270.671 474.21 287.261C471.634 296.235 470.202 305.498 469.95 314.831C469.95 314.831 463.87 319.831 452.67 320.831C442.08 321.721 426.9 318.961 407.95 304.831C368.95 275.831 333.95 283.831 333.95 283.831C333.95 283.831 340.95 243.831 356.95 231.831C372.95 219.831 384.95 204.831 404.95 158.831C424.95 112.831 465.95 123.831 465.95 123.831C465.95 123.831 467.95 114.831 504.95 123.831C513.962 126.193 522.304 130.612 529.32 136.741C549.11 153.381 558.71 179.191 555.43 204.831Z" fill="white"/>
<path id="Vector_44" d="M518.32 146.381C518.27 147.711 518.16 149.191 517.98 150.841C515.98 168.841 513.98 166.841 491.98 170.841C478.3 173.331 471.19 161.901 467.77 152.901C466.532 149.641 465.598 146.273 464.98 142.841L512.98 134.841C512.98 134.841 518.73 133.231 518.32 146.381Z" fill="#DB8B8B"/>
<path id="Vector_45" opacity="0.05" d="M474.21 287.311C471.634 296.285 470.202 305.548 469.95 314.881C469.95 314.881 463.87 319.881 452.67 320.881C452.354 320.244 452.113 319.573 451.95 318.881C449.95 309.881 434.95 293.881 434.95 293.881C424.95 284.881 422.95 268.881 422.95 268.881L406.45 220.381L400.95 215.881C400.95 215.881 423.95 197.881 443.95 212.881C463.95 227.881 457.95 259.881 457.95 259.881L461.95 270.881C466.1 274.381 470.32 280.551 474.21 287.311Z" fill="black"/>
<path id="Vector_46" d="M403.95 214.881L425.95 267.881C425.95 267.881 427.95 283.881 437.95 292.881C437.95 292.881 452.95 308.881 454.95 317.881C456.95 326.881 484.95 350.881 484.95 350.881C484.95 350.881 510.95 374.881 512.95 383.881C512.95 383.881 536.95 390.881 533.95 404.881C533.95 404.881 551.95 386.881 533.95 369.881C515.95 352.881 491.95 317.881 491.95 317.881C491.95 317.881 477.95 280.881 464.95 269.881L460.95 258.881C460.95 258.881 466.95 226.881 446.95 211.881C426.95 196.881 403.95 214.881 403.95 214.881Z" fill="#DB8B8B"/>
<path id="Vector_47" opacity="0.1" d="M416.95 593.881L390.95 607.881L382.95 601.881V597.881C391.934 597.243 400.663 594.609 408.5 590.171C410.9 588.811 413.16 587.471 414.97 586.291C416.02 590.921 416.95 593.881 416.95 593.881Z" fill="black"/>
<path id="Vector_48" opacity="0.1" d="M446.95 172.881L460.95 227.881C460.95 227.881 417.95 234.881 408.95 227.881C399.95 220.881 382.95 218.881 382.95 218.881C382.95 218.881 400.95 166.881 410.95 160.881C420.95 154.881 446.95 172.881 446.95 172.881Z" fill="black"/>
<path id="Vector_49" d="M446.95 170.881L460.95 225.881C460.95 225.881 417.95 232.881 408.95 225.881C399.95 218.881 382.95 216.881 382.95 216.881C382.95 216.881 400.95 164.881 410.95 158.881C420.95 152.881 446.95 170.881 446.95 170.881Z" fill="white"/>
<path id="Vector_50" opacity="0.1" d="M518.32 145.381C515.519 149.247 511.957 152.499 507.853 154.938C503.748 157.376 499.188 158.949 494.453 159.56C489.718 160.171 484.909 159.806 480.32 158.489C475.731 157.172 471.46 154.93 467.77 151.901C466.532 148.641 465.598 145.273 464.98 141.841L512.98 133.841C512.98 133.841 518.73 132.231 518.32 145.381Z" fill="black"/>
<path id="Vector_51" d="M524.95 123.881C524.95 133.163 521.263 142.066 514.699 148.63C508.135 155.193 499.233 158.881 489.95 158.881C480.667 158.881 471.765 155.193 465.201 148.63C458.638 142.066 454.95 133.163 454.95 123.881C454.95 123.301 454.95 122.721 454.95 122.141C455.181 112.858 459.09 104.048 465.816 97.6469C472.543 91.2463 481.537 87.7801 490.82 88.0108C500.103 88.2416 508.913 92.1503 515.314 98.8773C521.715 105.604 525.181 114.598 524.95 123.881Z" fill="#DB8B8B"/>
<path id="Vector_52" opacity="0.1" d="M524.95 123.881C524.953 127.107 524.509 130.317 523.63 133.421C520.925 134.01 518.103 133.752 515.55 132.681C511.81 131.211 508.6 128.681 505.01 126.861C494.9 121.741 482.87 122.751 471.67 124.441C466.11 125.281 459.8 126.061 455.43 122.521C455.28 122.402 455.136 122.275 455 122.141C455.231 112.858 459.14 104.048 465.866 97.6469C472.593 91.2463 481.587 87.7801 490.87 88.0108C500.153 88.2416 508.963 92.1503 515.364 98.8773C521.765 105.604 525.231 114.598 525 123.881H524.95Z" fill="black"/>
<path id="Vector_53" opacity="0.05" d="M361.45 231.381C361.45 231.381 387.45 238.381 395.45 256.381C403.45 274.381 425.09 277.671 425.09 277.671" fill="black"/>
<path id="Vector_54" d="M459.45 627.381H399.45V646.381H459.45V627.381Z" fill="#878692"/>
<path id="Vector_55" d="M408.46 592.121C413.83 589.121 418.54 586.121 418.95 584.881C418.95 584.881 432.5 599.181 444.57 603.621C448.629 605.12 452.514 607.051 456.16 609.381C460.94 612.381 467.76 615.911 473.95 615.911C473.95 615.911 487.95 627.911 460.95 629.911C433.95 631.911 370.95 624.911 370.95 624.911L374.95 599.911C386.637 600.596 398.274 597.891 408.46 592.121Z" fill="#ABB1D1"/>
</g>
<g id="hat">
<path id="hat_2" d="M427.624 103.927C429.754 110.607 439.984 110.817 445.234 115.737C447.964 118.297 449.234 122.077 452.234 124.357C456.404 127.537 462.424 126.837 467.734 126.077C478.424 124.557 489.904 123.647 499.544 128.257C502.964 129.887 506.034 132.167 509.604 133.497C513.174 134.827 517.604 134.987 520.504 132.627C522.824 130.737 523.674 127.627 525.774 125.547C527.404 123.907 529.674 122.987 531.534 121.547C535.614 118.467 537.374 113.447 538.534 108.647C540.934 98.7667 541.624 88.1167 537.534 78.7467C533.444 69.3767 523.604 61.7467 512.864 62.2367C509.574 62.3867 506.364 63.2367 503.084 63.5967C494.534 64.4667 486.084 61.5967 477.504 61.1067C475.015 60.8039 472.49 61.1483 470.174 62.1067C468.427 63.0775 466.92 64.4273 465.764 66.0567C461.836 71.2021 459.146 77.1836 457.904 83.5367C456.904 88.3267 456.854 92.6667 450.984 93.4067C444.314 94.2867 423.114 89.7967 427.624 103.927Z" fill="#472727"/>
</g>
</g>
</svg>
